<svg width="22" height="26" viewBox="0 0 22 26" fill="none" xmlns="http://www.w3.org/2000/svg">
<g clip-path="url(#clip0_260_499)">
<path d="M3.42222 8.90741C3.37822 5.53704 4.21422 2.47481 5.62222 0.161296V0H0V26H5.62222V17.2202C4.29244 14.9909 3.46622 12.0948 3.42222 8.90741Z" fill="#A4A9FF"/>
<path d="M13.2 0C11.4595 0 9.75813 0.508291 8.31098 1.4606C6.86383 2.4129 5.73591 3.76645 5.06986 5.35008C4.40381 6.9337 4.22954 8.67628 4.56909 10.3574C4.90864 12.0386 5.74676 13.5829 6.97746 14.7949C8.20816 16.007 9.77617 16.8324 11.4832 17.1668C13.1902 17.5012 14.9596 17.3296 16.5676 16.6736C18.1756 16.0177 19.55 14.9068 20.5169 13.4816C21.4839 12.0564 22 10.3808 22 8.66667C22 6.36812 21.0729 4.16372 19.4225 2.53841C17.7722 0.913093 15.5339 0 13.2 0V0ZM13.2 13C12.3298 13 11.4791 12.7459 10.7555 12.2697C10.0319 11.7935 9.46795 11.1168 9.13493 10.325C8.8019 9.53315 8.71477 8.66186 8.88454 7.82128C9.05432 6.98069 9.47338 6.20856 10.0887 5.60254C10.7041 4.99651 11.4881 4.5838 12.3416 4.4166C13.1951 4.24939 14.0798 4.33521 14.8838 4.66319C15.6878 4.99117 16.375 5.54658 16.8585 6.2592C17.3419 6.97181 17.6 7.80961 17.6 8.66667C17.6 9.81594 17.1364 10.9181 16.3113 11.7308C15.4861 12.5435 14.367 13 13.2 13Z" fill="#A4A9FF"/>
<path d="M8.8 6.5H0V10.8333H8.8V6.5Z" fill="#A4A9FF"/>
</g>
<defs>
<clipPath id="clip0_260_499">
<rect width="22" height="26" fill="white"/>
</clipPath>
</defs>
</svg>
